<?xml version="1.0" encoding="UTF-8" standalone="no"?>
<svg xmlns="http://www.w3.org/2000/svg" viewBox="0 0 500 142.8" width="256" height="73">
  <path fill="#95BF47" d="M107.4,27.2c-0.1-0.7-0.7-1.1-1.2-1.1c-0.5,0-11.3-0.8-11.3-0.8s-7.5-7.4-8.3-8.2
    c-0.8-0.8-2.3-0.6-2.9-0.4c-0.1,0-1.8,0.5-4.5,1.4C77.7,12,74.5,8.6,70,8.6c-0.2,0-0.4,0-0.7,0c-1-1.3-2.2-2.4-3.7-3.2
    c-5.4-3-10.7-0.8-14.8,3.9c-2.9,3.4-5.1,8.2-5.7,14.7c-4.1,1.3-8.1,2.5-11.2,3.5c-3.3,1-3.4,1.1-3.8,4.2c-0.3,2.4-9.5,73-9.5,73
    s-0.6,1.9,1.7,2.3c2.3,0.4,86.6,16.5,90.9,17.3c4.2,0.9,4.7-1.7,4.7-1.7S107.5,28,107.4,27.2z M75.2,19.2
    c-2.1,0.6-4.4,1.4-6.9,2.2c0-0.3,0-0.6,0-0.9c0-5.9,1.5-10.6,3.5-13.3c1.7,0.5,3.2,1.6,4.3,3.2c0,0.1,0.1,0.1,0.1,0.2
    C77.7,13.5,76.9,16.6,75.2,19.2z M66.5,9.9c0.9-2.1,2.1-3.8,3.4-5c3.1-2.7,7.1-2.1,9.5-1.4C76.7,1.6,73.5,0,69.8,0
    c-7.7,0-14,6.2-14,13.8c0,0.2,0,0.3,0,0.5C58.1,13.4,61.9,12.7,66.5,9.9z M51.6,24.4c0.3-2.1,1-7.5,2.7-14.6
    c2-0.6,4-0.6,5.9,0.3c-3.7,5.1-6.6,12-6.6,20.7c0,0.5,0,0.9,0,1.4C52.8,31,52.1,29.9,51.6,24.4z"/>
  <path fill="#5E8E3E" d="M106.1,26.1c-0.5,0-11.3-0.8-11.3-0.8s-7.5-7.4-8.3-8.2c-0.3-0.3-0.6-0.5-1-0.5l-6.1,126.2
    c4.2,0.9,4.7-1.7,4.7-1.7S107.5,28,107.4,27.2C107.3,26.5,106.7,26.1,106.1,26.1z"/>
  <path fill="#FFFFFF" d="M64.9,49.8l-4.3,12.7c0,0-3.8-2-8.4-2c-6.7,0-7.1,4.2-7.1,5.3c0,5.8,15.3,8.1,15.3,21.8
    c0,10.8-6.9,17.8-16.1,17.8c-11.1,0-16.8-6.9-16.8-6.9l3-9.8c0,0,5.8,5,10.8,5c3.2,0,4.6-2.5,4.6-4.4c0-7.7-12.6-8-12.6-20.7
    c0-10.7,7.7-21,23.2-21C62.6,47.6,64.9,49.8,64.9,49.8z"/>
  <path fill="#000000" d="M164.5,78.5c-3.4-1.9-5.2-3.4-5.2-5.6c0-2.7,2.4-4.5,6.2-4.5c4.4,0,8.4,1.8,8.4,1.8l3.1-9.7
    c0,0-2.9-2.3-11.1-2.3c-11.6,0-19.7,6.6-19.7,16c0,5.3,3.8,9.3,8.7,12.2c4.1,2.3,5.5,3.9,5.5,6.3c0,2.5-2,4.5-5.7,4.5
    c-5.5,0-10.7-2.8-10.7-2.8l-3.2,9.8c0,0,4.8,3.3,12.9,3.3c11.8,0,20.3-5.8,20.3-16.2C173.9,85.7,169.6,81.5,164.5,78.5z
     M219,57.6c-5.8,0-10.3,2.8-13.8,6.9l-0.2-0.1l5-26.4h-13.7l-12.6,66.1H198l4.3-22.5c1.7-8.5,6.1-13.7,10.2-13.7
    c2.9,0,4,2,4,4.8c0,1.8-0.2,4-0.5,5.8l-4.8,25.6h14.3l5-26.2c0.6-2.8,0.9-6.1,0.9-8.5C231.3,62.2,227.1,57.6,219,57.6z
     M260.6,57.6c-17.1,0-28.4,15.5-28.4,32.7c0,11,6.8,19.9,19.5,19.9c16.8,0,28-15.2,28-32.7C279.7,66.3,273.1,57.6,260.6,57.6z
     M253.6,100.2c-4.9,0-6.9-4.2-6.9-9.3c0-8.2,4.2-21.5,12-21.5c5.1,0,6.8,4.3,6.8,8.5C265.4,86.9,261.3,100.2,253.6,100.2z
     M317.7,57.6c-9.6,0-15,8.5-15,8.5h-0.2l0.8-7.7h-12.7c-0.6,5.1-1.7,12.9-2.8,18.8l-9.6,50.3h14.3l3.8-20.6h0.3
    c0,0,2.9,1.8,8.3,1.8c16.6,0,27.4-17,27.4-34.1C332.2,64,327.3,57.6,317.7,57.6z M305.3,100.4c-3.7,0-5.9-2.1-5.9-2.1l2.4-13.1
    c1.7-8.9,6.2-14.8,11.1-14.8c4.3,0,5.7,4,5.7,7.8C318.6,87.8,313.2,100.4,305.3,100.4z M356.4,37c-4.6,0-8.2,3.6-8.2,8.2
    c0,4.2,2.7,7.1,6.7,7.1h0.2c4.4,0,8.3-3,8.3-8.2C363.3,39.9,360.7,37,356.4,37z M335.5,104h14.3l9.7-50.5h-14.4L335.5,104z
     M409.4,53.5h-9.9l0.5-2.4c0.8-4.8,3.7-9,8.4-9c2.5,0,4.5,0.7,4.5,0.7l2.7-11.2c0,0-2.4-1.2-7.6-1.2c-5,0-9.9,1.4-13.7,4.7
    c-4.8,4.1-7,10.1-8.1,16.1l-0.4,2.4h-6.6l-2.1,10.7h6.6l-7.5,39.8h14.3l7.5-39.8h9.8L409.4,53.5z M442.2,53.5
    c0,0-8.9,22.5-12.9,34.8h-0.2c-0.3-4-3.7-34.8-3.7-34.8h-15l9.1,49.2c0.2,1.1,0.1,1.8-0.3,2.5c-1.7,3.2-4.5,6.3-7.8,8.5
    c-2.7,1.9-5.7,3.1-8.1,3.9l4,12.3c2.9-0.6,9-3,14.1-7.8c6.5-6.1,12.6-15.5,18.7-28.3l17.5-40.4H442.2z"/>
</svg>
