<?xml version="1.0" encoding="UTF-8" standalone="no"?>
<svg xmlns="http://www.w3.org/2000/svg" width="256" height="256" viewBox="0 0 256 256">
  <path fill="#21759b" d="M128 0C57.29 0 0 57.29 0 128s57.29 128 128 128 128-57.29 128-128S198.71 0 128 0zm0 250.57c-67.61 0-122.57-54.96-122.57-122.57S60.39 5.43 128 5.43 250.57 60.39 250.57 128 195.61 250.57 128 250.57zm0-230.43C71.09 20.14 25.86 65.38 25.86 128c0 34.32 15.42 65.09 39.7 85.85-1.02-8.53-1.79-21.98 1.79-31.4 3.07-8.53 19.86-57.04 19.86-57.04s-5.05-10.09-5.05-25c0-23.44 13.5-40.92 30.38-40.92 14.28 0 21.19 10.75 21.19 23.65 0 14.4-9.13 35.95-13.9 55.94-3.96 16.71 8.38 30.36 24.9 30.36 29.84 0 49.93-38.39 49.93-83.83 0-34.56-23.27-60.43-65.54-60.43-47.78 0-77.58 35.66-77.58 75.42 0 13.72 4.05 23.4 10.37 30.89 2.91 3.45 3.32 4.82 2.26 8.76-.76 2.87-2.5 9.8-3.22 12.56-1.06 4.01-4.3 5.46-7.94 3.98-22.11-9.03-32.39-33.25-32.39-60.47 0-44.98 37.98-98.94 113.33-98.94 60.51 0 100.31 43.81 100.31 90.75 0 62.16-34.56 108.57-85.48 108.57-17.09 0-33.16-9.26-38.64-19.75 0 0-9.19 36.38-11.14 43.42-3.35 12.18-9.91 24.34-15.87 33.79 14.02 4.32 29.78 5.48 41.86 5.48 62.68 0 113.72-50.79 114.14-113.42.42-62.68-50.3-113.9-113-114.31z" />
</svg>
